<?xml version="1.0" encoding="iso-8859-1"?>
<!-- Generator: Adobe Illustrator 19.0.0, SVG Export Plug-In . SVG Version: 6.00 Build 0)  -->
<svg version="1.1" id="Capa_1" xmlns="http://www.w3.org/2000/svg" xmlns:xlink="http://www.w3.org/1999/xlink" x="0px" y="0px"
	 viewBox="0 0 512.104 512.104" style="enable-background:new 0 0 512.104 512.104;" xml:space="preserve">
<g>
	<g transform="translate(1)">
		<g>
			<path style="fill:#E57E25;" d="M245.792,482.584c-2.347-23.037-11.954-44.731-27.435-61.952
				c-3.327-3.339-8.731-3.349-12.07-0.021s-3.349,8.731-0.021,12.07c12.098,13.909,19.842,31.066,22.272,49.34
				c-17.537-3.75-35.745,2.122-47.787,15.411c-2.218,2.142-3.108,5.315-2.327,8.299c0.781,2.984,3.111,5.314,6.094,6.094
				c2.984,0.781,6.156-0.109,8.299-2.327c19.772-19.78,38.4-8.772,40.482-7.433c0.128,0.077,0.273,0.085,0.401,0.162
				s0.137,0.111,0.213,0.162c0.706,0.391,1.465,0.678,2.253,0.853c0.331,0.048,0.664,0.08,0.998,0.094
				c0.63,0.068,1.265,0.068,1.894,0c0.348-0.035,0.693-0.095,1.033-0.179c0.905-0.2,1.77-0.549,2.56-1.033
				c0.853-0.546,21.436-13.184,49.954,8.209c2.439,1.829,5.668,2.218,8.472,1.021s4.755-3.8,5.12-6.827
				c0.365-3.027-0.913-6.018-3.352-7.847C287.146,483.188,265.97,477.956,245.792,482.584z"/>
			<path style="fill:#E57E25;" d="M354.891,463.299c-15.745-15.488-38.855-20.818-59.793-13.79l-6.229-24.917
				c-1.172-4.54-5.788-7.284-10.336-6.145s-7.325,5.736-6.218,10.292l8.533,34.133c0.628,2.502,2.355,4.586,4.697,5.668
				c2.342,1.082,5.048,1.047,7.361-0.096c1.178-0.58,29.09-13.901,49.92,6.921c3.348,3.234,8.671,3.188,11.962-0.104
				C358.079,471.969,358.125,466.647,354.891,463.299z"/>
		</g>
		<path style="fill:#C52828;" d="M429.839,72.617l-12.715,12.715h-93.867l-12.715-12.715c-5.46-5.453-8.339-12.973-7.915-20.677
			c0.423-7.705,4.109-14.864,10.134-19.685h0.085c10.743-8.597,26.22-7.79,36.011,1.877v-4.267
			c-0.015-8.64,5.182-16.437,13.164-19.745s17.171-1.476,23.273,4.641c4.46,5.432,6.687,12.357,6.229,19.371
			c9.79-9.668,25.268-10.475,36.011-1.877h0.085c6.025,4.821,9.71,11.981,10.134,19.685
			C438.178,59.644,435.299,67.165,429.839,72.617z"/>
		<path style="fill:#FDD834;" d="M468.666,128.084c-16.981-0.256-45.227,3.925-51.541,34.048v-5.12
			c-0.744-7.22,0.588-14.503,3.84-20.992c21.76-33.621-3.84-50.688-3.84-50.688c24.097-4.324,48.117,7.965,58.709,30.037
			c1.464,2.601,1.463,5.777-0.003,8.376C474.366,126.345,471.649,127.99,468.666,128.084z"/>
		<g>
			<path style="fill:#F57C00;" d="M229.306,228.777c-3.417,1.105-6.99,1.652-10.581,1.621c-9.577,0.011-18.764-3.788-25.536-10.56
				c-6.772-6.772-10.571-15.96-10.56-25.536v-32.171c-1.168-35.666-13.162-70.131-34.389-98.816
				c-4.897-7.013-12.074-12.11-20.309-14.421c0.512-0.171,1.109-0.341,1.707-0.512c2.928-0.747,5.938-1.119,8.96-1.109
				c12.261,0.04,23.743,6.02,30.805,16.043c21.227,28.685,33.222,63.15,34.389,98.816v32.171
				C203.76,210.164,214.127,224.173,229.306,228.777z"/>
			<path style="fill:#F57C00;" d="M396.645,203.945c18.515,37.86,28.976,79.15,30.72,121.259c0.341,28.928-8.96,60.16-33.963,76.885
				c-25.941,17.237-58.453,21.589-88.747,23.979c-16.384,1.28-32.939,1.621-49.408,1.365c9.472-0.256,18.859-0.683,28.245-1.365
				c30.293-2.389,62.805-6.741,88.747-23.979c25.003-16.725,34.304-47.957,33.963-76.885c-1.744-42.109-12.205-83.398-30.72-121.259
				c11.691-3.925,20.48-21.163,20.48-41.813v-5.12c-0.744-7.22,0.588-14.503,3.84-20.992c21.76-33.621-3.84-50.688-3.84-50.688
				c-11.299-5.593-23.539-9.036-36.096-10.155c19.657-1.939,39.467,1.575,57.259,10.155c0,0,25.6,17.067,3.84,50.688
				c-3.252,6.489-4.584,13.772-3.84,20.992v5.12C417.125,182.783,408.335,200.02,396.645,203.945z"/>
		</g>
		<path style="fill:#FF9801;" d="M375.482,203.945c18.515,37.86,28.976,79.15,30.72,121.259c0.341,28.928-8.96,60.16-33.963,76.885
			c-25.941,17.237-58.453,21.589-88.747,23.979c-9.387,0.683-18.773,1.109-28.245,1.365h-0.853
			c-10.325-0.256-20.651-0.768-30.891-1.451c-19.286-0.79-38.313-4.739-56.32-11.691c-15.532-6.496-30.137-15.018-43.435-25.344
			c-21.921-17.249-40.96-37.872-56.405-61.099c-11.39-16.95-15.509-37.759-11.435-57.771l2.816-14.08l1.451-2.389l-1.792-1.024
			c-21.442-12.244-30.725-38.315-21.845-61.355l11.435-29.099l1.365-1.451c-15.615-12.691-18.404-35.456-6.315-51.541
			c8.96-11.931,24.135-17.425,38.656-13.995c5.915,1.416,11.393,4.258,15.957,8.277l12.459,10.837l-4.864-12.8
			c-4.978-9.871-5.322-21.44-0.939-31.589c4.382-10.149,13.04-17.832,23.638-20.976c8.235,2.312,15.413,7.408,20.309,14.421
			c21.227,28.685,33.222,63.15,34.389,98.816v32.171c-0.011,9.577,3.788,18.764,10.56,25.536c6.772,6.772,15.96,10.571,25.536,10.56
			c3.591,0.031,7.164-0.517,10.581-1.621c3.417,1.105,6.99,1.652,10.581,1.621c8.597,0.001,16.914-3.053,23.467-8.619
			c6.547-5.554,10.878-13.277,12.203-21.76c6.656-43.008,25.088-117.163,73.301-123.221c3.628-0.793,7.306-1.335,11.008-1.621
			c12.557,1.118,24.797,4.562,36.096,10.155c0,0,25.6,17.067,3.84,50.688c-3.252,6.489-4.584,13.772-3.84,20.992v5.12
			C395.962,182.783,387.173,200.02,375.482,203.945z"/>
		<g>
			<path style="fill:#E57E25;" d="M257.125,392.02c-49.553,0-101.163-23.697-120.986-73.105c-1.137-2.829-0.679-6.05,1.203-8.449
				c1.882-2.399,4.9-3.613,7.919-3.183c3.019,0.43,5.579,2.437,6.716,5.267c21.333,53.299,86.835,71.501,137.796,58.359
				c14.421-3.721,48.99-15.693,58.556-46.268c4.942-13.29,3.027-28.161-5.12-39.765c-11.15-13.554-28.016-21.086-45.551-20.343
				c-4.713,0-8.533-3.82-8.533-8.533s3.821-8.533,8.533-8.533c22.976-0.761,44.966,9.359,59.332,27.307
				c11.337,15.988,14.183,36.492,7.629,54.963c-8.533,27.307-34.253,48.316-70.579,57.702
				C281.976,390.51,269.573,392.049,257.125,392.02z"/>
			<path style="fill:#E57E25;" d="M254.991,315.732c-1.954,0-48.162-0.444-67.371-38.852c-3.9-10.047-13.586-16.652-24.363-16.614
				c-5.296,0.071-10.521,1.218-15.36,3.371c-4.218,2.107-9.345,0.395-11.452-3.823c-2.107-4.218-0.395-9.345,3.823-11.452
				c10.993-6.027,24.001-7.199,35.894-3.234c11.893,3.964,21.596,12.707,26.775,24.124c14.507,29.073,51.678,29.414,52.053,29.414
				c4.713,0,8.533,3.82,8.533,8.533S259.704,315.732,254.991,315.732z"/>
		</g>
		<path style="fill:#802D40;" d="M396.047,204.116c-1.459,0.476-2.988,0.707-4.523,0.683"/>
		<path style="fill:#C52828;" d="M417.125,162.132c0,20.651-8.789,37.888-20.48,41.813c-0.19,0.085-0.391,0.143-0.597,0.171
			c-2.947,0.908-6.099,0.908-9.045,0c-0.208-0.017-0.411-0.075-0.597-0.171c-11.691-3.925-20.48-21.163-20.48-41.813
			c0-23.552,11.435-42.667,25.6-42.667C405.69,119.465,417.125,138.58,417.125,162.132z"/>
		<path style="fill:#802D40;" d="M391.525,204.799c-1.535,0.024-3.063-0.206-4.523-0.683"/>
	</g>
	<g>
		<path d="M50.799,257.125l-2.261,11.281c-4.455,22.252,0.129,45.363,12.74,64.23c15.953,23.987,35.624,45.279,58.274,63.078
			c13.894,10.78,29.153,19.675,45.38,26.453c13.642,5.461,27.955,9.069,42.556,10.726c11.965,13.887,19.627,30.957,22.05,49.126
			c-17.537-3.75-35.745,2.122-47.787,15.411c-2.218,2.142-3.108,5.315-2.327,8.299c0.781,2.984,3.111,5.314,6.094,6.094
			c2.984,0.781,6.156-0.109,8.299-2.327c19.772-19.78,38.4-8.772,40.482-7.433c0.128,0.077,0.273,0.085,0.401,0.162
			s0.137,0.111,0.213,0.162c0.706,0.391,1.465,0.678,2.253,0.853c0.331,0.048,0.664,0.08,0.998,0.094
			c0.63,0.068,1.265,0.068,1.894,0c0.348-0.035,0.693-0.095,1.033-0.179c0.905-0.2,1.77-0.549,2.56-1.033
			c0.853-0.546,21.436-13.184,49.954,8.209c2.439,1.829,5.668,2.218,8.472,1.021s4.755-3.8,5.12-6.827
			c0.365-3.027-0.913-6.018-3.352-7.847c-15.692-13.456-36.836-18.671-56.986-14.054c-1.854-16.981-7.538-33.32-16.623-47.787
			c12.45,0.751,24.747,1.203,36.693,1.203c2.79,0,5.504-0.111,8.26-0.154l6.75,26.999c0.628,2.502,2.355,4.586,4.697,5.668
			c2.342,1.082,5.048,1.047,7.361-0.096c1.178-0.58,29.09-13.901,49.92,6.921c3.348,3.234,8.671,3.188,11.962-0.104
			c3.292-3.292,3.338-8.614,0.104-11.962c-15.76-15.53-38.918-20.869-59.887-13.807l-3.541-14.165
			c4.625-0.222,9.267-0.427,13.773-0.768c32.179-2.56,65.707-7.373,92.809-25.395c24.439-16.333,38.195-46.985,37.76-84.062
			c-1.428-40.709-11.089-80.707-28.399-117.581c12.196-11.333,18.83-27.431,18.159-44.066c5.069-22.69,26.223-27.238,42.931-26.837
			c5.83,0.023,11.248-3.003,14.285-7.979c3.211-5.269,3.402-11.842,0.503-17.289c-9.01-18.141-26.075-30.947-46.012-34.526
			c6.451-7.231,9.652-16.792,8.855-26.449s-5.522-18.564-13.07-24.64l-0.256-0.154c-9.745-7.779-22.856-9.878-34.543-5.53
			c-1.434-4.26-3.818-8.138-6.972-11.341c-7.261-7.263-17.752-10.273-27.759-7.966c-10.008,2.307-18.121,9.607-21.47,19.315
			c-11.719-4.4-24.89-2.302-34.662,5.521l-0.196,0.171c-7.849,6.36-12.631,15.751-13.156,25.84
			c-0.526,10.088,3.254,19.926,10.4,27.067l7.757,7.765c-27.657,27.23-39.927,78.455-45.167,112.273
			c-1.014,6.462-4.315,12.346-9.301,16.58c-8.194,6.966-19.688,8.541-29.454,4.035c-9.766-4.506-16.027-14.272-16.046-25.027
			v-32.171c-1.094-37.442-13.642-73.649-35.951-103.74c-8.665-12.281-22.747-19.597-37.777-19.627
			c-3.721-0.009-7.428,0.449-11.034,1.365c-22.519,5.618-37.322,27.137-34.517,50.176c-19.77-9.666-43.619-3.952-56.862,13.624
			s-12.161,42.075,2.582,58.414l-10.146,25.719C19.889,213.214,28.642,241.755,50.799,257.125z M50.85,114.234
			c4.827-6.433,12.116-10.564,20.115-11.401c7.999-0.837,15.985,1.696,22.04,6.99l37.871,33.126c2.248,2.258,5.567,3.075,8.606,2.12
			s5.293-3.525,5.845-6.663c0.552-3.138-0.69-6.322-3.221-8.257l-23.817-20.847l-4.113-10.837c-0.102-0.273-0.222-0.538-0.35-0.802
			c-3.935-7.846-4.086-17.056-0.409-25.026c3.676-7.97,10.78-13.834,19.302-15.934c11.631-2.668,23.728,1.887,30.711,11.563
			c20.265,27.206,31.72,59.961,32.828,93.867v32.171c-0.09,23.353,17.835,42.829,41.116,44.672
			c23.281,1.842,44.047-14.572,47.631-37.649c5.12-33.05,21.786-110.515,65.937-116.053c4.675-0.59,7.987-4.857,7.398-9.532
			c-0.259-2.256-1.416-4.312-3.21-5.704c-1.794-1.392-4.073-2.003-6.322-1.694c-7.724,1.021-15.157,3.618-21.837,7.629l-9.387-9.387
			c-3.734-3.742-5.698-8.897-5.401-14.175s2.825-10.18,6.955-13.481l0.171-0.137c7.406-5.817,17.991-5.179,24.644,1.485l8.422,8.422
			c3.348,3.234,8.671,3.188,11.962-0.104c3.292-3.292,3.338-8.614,0.104-11.962l-6.05-6.033v-0.734c0-7.069,5.731-12.8,12.8-12.8
			s12.8,5.731,12.8,12.8c0.055,0.638,0.181,1.267,0.375,1.877c-1.212,3.733,0.304,7.809,3.66,9.843
			c3.356,2.034,7.671,1.492,10.42-1.31c6.654-6.654,17.227-7.295,24.636-1.493l0.179,0.145c4.13,3.306,6.656,8.215,6.946,13.497
			c0.29,5.282-1.684,10.438-5.427,14.176l-12.689,12.698c-0.184,0.247-0.355,0.503-0.512,0.768
			c-0.375,0.454-0.701,0.946-0.973,1.468c-0.238,0.475-0.426,0.972-0.563,1.485c-0.159,0.514-0.262,1.043-0.307,1.579
			c-0.043,0.583-0.025,1.169,0.051,1.749c-0.017,0.307-0.017,0.615,0,0.922c0.051,0.213,0.205,0.367,0.265,0.572
			c0.184,0.551,0.427,1.08,0.725,1.579c0.259,0.499,0.571,0.968,0.93,1.399c0.145,0.171,0.196,0.384,0.358,0.546
			c0.251,0.189,0.513,0.363,0.785,0.521c0.445,0.369,0.929,0.689,1.442,0.956c0.48,0.24,0.983,0.432,1.502,0.572
			c0.511,0.158,1.037,0.261,1.57,0.307c0.25,0.062,0.504,0.11,0.759,0.145c0.334-0.044,0.664-0.11,0.99-0.196
			c0.315,0.021,0.632,0.021,0.947,0c20.511-3.353,40.782,7.199,49.801,25.924c-32.905-0.324-54.477,14.293-60.092,40.798
			c-0.017,0.298-0.017,0.598,0,0.896c-0.076,0.278-0.136,0.56-0.179,0.845c0,19.541-9.011,34.133-17.067,34.133
			c-8.055,0-17.067-14.592-17.067-34.133s9.011-34.133,17.067-34.133c4.713,0,8.533-3.821,8.533-8.533
			c0-4.713-3.82-8.533-8.533-8.533c-19.14,0-34.133,22.494-34.133,51.2s14.933,51.098,34.014,51.2
			c16.642,35.078,25.974,73.176,27.426,111.974c0.179,14.771-2.415,51.123-30.157,69.675
			c-23.851,15.855-54.801,20.224-84.659,22.579c-6.827,0.521-13.824,0.853-20.932,1.101c-1.462-0.523-3.043-0.618-4.557-0.273
			c-0.262,0.106-0.519,0.225-0.768,0.358c-17.254,0.384-35.174,0-53.666-1.28c-18.378-0.688-36.513-4.438-53.658-11.093
			c-14.835-6.204-28.783-14.344-41.481-24.209c-21.204-16.69-39.616-36.649-54.545-59.127
			c-10.057-15.07-13.705-33.522-10.138-51.285l1.033-5.12l23.194,13.79c4.049,2.406,9.281,1.077,11.691-2.97
			c2.406-4.049,1.077-9.281-2.97-11.691l-34.432-20.48c-17.816-10.151-25.578-31.77-18.287-50.935l8.397-21.291l44.681,22.357
			c2.729,1.363,5.977,1.166,8.521-0.515c2.544-1.682,3.998-4.593,3.814-7.637c-0.184-3.044-1.978-5.759-4.707-7.122l-45.184-22.63
			c-7.68-3.841-13.257-10.895-15.222-19.254C43.835,129.894,45.685,121.094,50.85,114.234z"/>
		<path d="M258.125,392.02c12.449,0.029,24.852-1.51,36.915-4.582c36.326-9.387,62.054-30.413,70.579-57.702
			c6.554-18.471,3.708-38.976-7.629-54.963c-14.366-17.947-36.356-28.068-59.332-27.307c-4.713,0-8.533,3.82-8.533,8.533
			s3.821,8.533,8.533,8.533c17.547-0.754,34.428,6.78,45.585,20.343c8.147,11.605,10.062,26.475,5.12,39.765
			c-9.566,30.575-44.134,42.547-58.556,46.268c-50.961,13.141-116.42-5.06-137.796-58.359c-1.758-4.374-6.728-6.494-11.102-4.736
			c-4.374,1.758-6.494,6.728-4.736,11.102C157.005,368.323,208.572,392.02,258.125,392.02z"/>
		<path d="M148.872,263.678c4.839-2.153,10.064-3.3,15.36-3.371c10.777-0.038,20.463,6.568,24.363,16.614
			c19.234,38.366,65.442,38.81,67.396,38.81c4.713,0,8.533-3.82,8.533-8.533s-3.82-8.533-8.533-8.533
			c-0.375,0-37.547-0.341-52.053-29.414c-5.179-11.413-14.879-20.151-26.768-24.115c-11.889-3.964-24.892-2.795-35.884,3.226
			c-4.218,2.107-5.93,7.234-3.823,11.452c2.107,4.218,7.234,5.93,11.452,3.823L148.872,263.678z"/>
	</g>
</g>
<g>
</g>
<g>
</g>
<g>
</g>
<g>
</g>
<g>
</g>
<g>
</g>
<g>
</g>
<g>
</g>
<g>
</g>
<g>
</g>
<g>
</g>
<g>
</g>
<g>
</g>
<g>
</g>
<g>
</g>
</svg>
